<?xml version="1.0" encoding="UTF-8"?>
<svg id="_レイヤー_1" data-name="レイヤー 1" xmlns="http://www.w3.org/2000/svg" xmlns:xlink="http://www.w3.org/1999/xlink" viewBox="0 0 1000 999.33">
  <defs>
    <style>
      .cls-1 {
        fill: url(#_名称未設定グラデーション_18);
      }

      .cls-1, .cls-2, .cls-3 {
        stroke-width: 0px;
      }

      .cls-2 {
        fill: url(#_名称未設定グラデーション_14);
      }

      .cls-3 {
        fill: url(#_名称未設定グラデーション_9);
      }
    </style>
    <linearGradient id="_名称未設定グラデーション_14" data-name="名称未設定グラデーション 14" x1="842.27" y1="521.36" x2="204.23" y2="521.36" gradientUnits="userSpaceOnUse">
      <stop offset="0" stop-color="#00b9ed"/>
      <stop offset=".18" stop-color="#009dda"/>
      <stop offset=".74" stop-color="#004fa7"/>
      <stop offset=".99" stop-color="#003093"/>
    </linearGradient>
    <linearGradient id="_名称未設定グラデーション_18" data-name="名称未設定グラデーション 18" x1="143.63" y1="499.67" x2="852.87" y2="499.67" gradientUnits="userSpaceOnUse">
      <stop offset="0" stop-color="#00b9ed"/>
      <stop offset=".31" stop-color="#0084ca"/>
      <stop offset=".62" stop-color="#0056ac"/>
      <stop offset=".86" stop-color="#003a99"/>
      <stop offset=".99" stop-color="#003093"/>
    </linearGradient>
    <linearGradient id="_名称未設定グラデーション_9" data-name="名称未設定グラデーション 9" x1="310.15" y1="308.44" x2="686.12" y2="684.41" gradientUnits="userSpaceOnUse">
      <stop offset="0" stop-color="#00b9ed"/>
      <stop offset=".34" stop-color="#008dd0"/>
      <stop offset=".99" stop-color="#003093"/>
    </linearGradient>
  </defs>
  <path class="cls-2" d="M523.25,202.34c-41.41,0-80.99,7.89-117.29,22.25,30.01-10.45,62.26-16.13,95.83-16.13,160.95,0,291.43,130.48,291.43,291.43s-130.48,291.43-291.43,291.43-291.43-130.48-291.43-291.43c0-33.54,5.67-65.76,16.1-95.75-14.34,36.28-22.22,75.83-22.22,117.21,0,176.19,142.83,319.02,319.02,319.02s319.02-142.83,319.02-319.02-142.83-319.02-319.02-319.02Z"/>
  <path class="cls-1" d="M184.47,518.75c0-186.26,150.99-337.25,337.25-337.25,164.31,0,301.17,117.5,331.15,273.06-22.16-175.34-171.85-310.94-353.2-310.94-196.63,0-356.04,159.4-356.04,356.04s159.4,356.04,356.04,356.04c2.11,0,4.21-.03,6.31-.06-178.95-8.22-321.51-155.9-321.51-336.89Z"/>
  <g>
    <path class="cls-3" d="M442.68,569.93l-61.6,156.32c-1.83,4.64.27,9.9,4.79,12.01,34.08,15.86,72.08,24.73,112.16,24.73s77.47-8.72,111.34-24.35c4.54-2.09,6.64-7.37,4.81-12.02l-61.74-156.68c-.98-2.49-3.39-4.13-6.07-4.13h-97.62c-2.68,0-5.09,1.64-6.07,4.13Z"/>
    <path class="cls-3" d="M498.03,230.78c-146.96,0-266.1,119.14-266.1,266.1,0,.25-.04,2.44.05,5.28.37,11.53.68,18.35,5.04,21.96,1.15.95,3.19,2.19,6.74,2.45,54.16-.2,108.32-.4,162.49-.6,1.54,0,2.93-.95,3.49-2.39l80.29-203.76c2.69-6.84,12.37-6.84,15.06,0l80.28,203.75c.57,1.44,1.96,2.39,3.51,2.39h163.58c2.9,0,7.38-.44,8.6-3.06,2.87-6.19,3.06-22.66,3.06-26.01,0-146.96-119.14-266.1-266.1-266.1Z"/>
    <path class="cls-3" d="M491.93,444.93l-29.1,73.85c-1.36,3.44,1.18,7.17,4.88,7.17h59.7c3.7,0,6.24-3.73,4.88-7.17l-29.1-73.85c-2.01-5.11-9.25-5.11-11.26,0Z"/>
    <path class="cls-3" d="M318.33,587.19s-23.17-22.85-62.82-22.85c-1.9,0-5.39-.24-7.62,1.9-7.5,7.22,4.19,32.01,7.62,38.08,0,0,26.04,60.49,74.25,97.09,2.33,1.77,6.38,5.65,9.35,3.43,9.69-7.24,20.2-42.24,9.69-73.87-7.55-22.71-23.33-37.47-30.46-43.79Z"/>
    <path class="cls-3" d="M678.15,587.19s23.17-22.85,62.82-22.85c1.9,0,5.39-.24,7.62,1.9,7.5,7.22-4.19,32.01-7.62,38.08,0,0-26.04,60.49-74.25,97.09-2.33,1.77-6.38,5.65-9.35,3.43-9.69-7.24-20.2-42.24-9.69-73.87,7.55-22.71,23.33-37.47,30.46-43.79Z"/>
    <path class="cls-3" d="M384.16,594.59l8.71-18.2c2.48-5.17-1.29-11.16-7.03-11.16h-25.62c-5.14,0-8.14,5.81-5.16,10l14.65,20.61c3.71,5.22,11.67,4.54,14.44-1.24Z"/>
    <path class="cls-3" d="M635.53,565.18h-25.62c-5.74,0-9.51,5.99-7.03,11.16l8.71,18.2c2.77,5.78,10.73,6.47,14.44,1.24l14.65-20.61c2.98-4.19-.02-10-5.16-10Z"/>
  </g>
</svg>