<?xml version="1.0" encoding="UTF-8"?>
<svg id="_レイヤー_1" data-name="レイヤー 1" xmlns="http://www.w3.org/2000/svg" xmlns:xlink="http://www.w3.org/1999/xlink" viewBox="0 0 1000 339.29">
  <defs>
    <style>
      .cls-1 {
        fill: url(#_名称未設定グラデーション_18);
      }

      .cls-1, .cls-2, .cls-3, .cls-4 {
        stroke-width: 0px;
      }

      .cls-2 {
        fill: url(#_名称未設定グラデーション_14);
      }

      .cls-3 {
        fill: #3f3a39;
      }

      .cls-4 {
        fill: url(#_名称未設定グラデーション_9);
      }
    </style>
    <linearGradient id="_名称未設定グラデーション_14" data-name="名称未設定グラデーション 14" x1="285.97" y1="177.01" x2="69.34" y2="177.01" gradientUnits="userSpaceOnUse">
      <stop offset="0" stop-color="#00b9ed"/>
      <stop offset=".18" stop-color="#009dda"/>
      <stop offset=".74" stop-color="#004fa7"/>
      <stop offset=".99" stop-color="#003093"/>
    </linearGradient>
    <linearGradient id="_名称未設定グラデーション_18" data-name="名称未設定グラデーション 18" x1="48.76" y1="169.65" x2="289.57" y2="169.65" gradientUnits="userSpaceOnUse">
      <stop offset="0" stop-color="#00b9ed"/>
      <stop offset=".31" stop-color="#0084ca"/>
      <stop offset=".62" stop-color="#0056ac"/>
      <stop offset=".86" stop-color="#003a99"/>
      <stop offset=".99" stop-color="#003093"/>
    </linearGradient>
    <linearGradient id="_名称未設定グラデーション_9" data-name="名称未設定グラデーション 9" x1="105.3" y1="104.72" x2="232.95" y2="232.37" gradientUnits="userSpaceOnUse">
      <stop offset="0" stop-color="#00b9ed"/>
      <stop offset=".34" stop-color="#008dd0"/>
      <stop offset=".99" stop-color="#003093"/>
    </linearGradient>
  </defs>
  <g>
    <path class="cls-2" d="M177.65,68.7c-14.06,0-27.5,2.68-39.82,7.56,10.19-3.55,21.14-5.48,32.53-5.48,54.65,0,98.95,44.3,98.95,98.95s-44.3,98.95-98.95,98.95-98.95-44.3-98.95-98.95c0-11.39,1.93-22.33,5.47-32.51-4.87,12.32-7.55,25.74-7.55,39.8,0,59.82,48.49,108.31,108.31,108.31s108.31-48.49,108.31-108.31-48.49-108.31-108.31-108.31Z"/>
    <path class="cls-1" d="M62.63,176.13c0-63.24,51.27-114.5,114.5-114.5,55.79,0,102.25,39.9,112.43,92.71-7.53-59.53-58.35-105.57-119.92-105.57-66.76,0-120.88,54.12-120.88,120.88s54.12,120.88,120.88,120.88c.72,0,1.43,0,2.14-.02-60.76-2.79-109.16-52.93-109.16-114.38Z"/>
    <g>
      <path class="cls-4" d="M150.3,193.5l-20.91,53.07c-.62,1.57.09,3.36,1.63,4.08,11.57,5.39,24.47,8.39,38.08,8.39s26.3-2.96,37.8-8.27c1.54-.71,2.26-2.5,1.63-4.08l-20.96-53.2c-.33-.85-1.15-1.4-2.06-1.4h-33.14c-.91,0-1.73.56-2.06,1.4Z"/>
      <path class="cls-4" d="M169.09,78.36c-49.9,0-90.35,40.45-90.35,90.35,0,.08-.01.83.02,1.79.13,3.92.23,6.23,1.71,7.46.39.32,1.08.74,2.29.83,18.39-.07,36.78-.14,55.17-.2.52,0,.99-.32,1.19-.81l27.26-69.18c.91-2.32,4.2-2.32,5.11,0l27.26,69.18c.19.49.66.81,1.19.81h55.54c.98,0,2.5-.15,2.92-1.04.97-2.1,1.04-7.69,1.04-8.83,0-49.9-40.45-90.35-90.35-90.35Z"/>
      <path class="cls-4" d="M167.02,151.06l-9.88,25.07c-.46,1.17.4,2.43,1.66,2.43h20.27c1.26,0,2.12-1.27,1.66-2.43l-9.88-25.07c-.68-1.73-3.14-1.73-3.82,0Z"/>
      <path class="cls-4" d="M108.08,199.36s-7.87-7.76-21.33-7.76c-.65,0-1.83-.08-2.59.65-2.55,2.45,1.42,10.87,2.59,12.93,0,0,8.84,20.54,25.21,32.96.79.6,2.17,1.92,3.17,1.16,3.29-2.46,6.86-14.34,3.29-25.08-2.56-7.71-7.92-12.72-10.34-14.87Z"/>
      <path class="cls-4" d="M230.25,199.36s7.87-7.76,21.33-7.76c.65,0,1.83-.08,2.59.65,2.55,2.45-1.42,10.87-2.59,12.93,0,0-8.84,20.54-25.21,32.96-.79.6-2.17,1.92-3.17,1.16-3.29-2.46-6.86-14.34-3.29-25.08,2.56-7.71,7.92-12.72,10.34-14.87Z"/>
      <path class="cls-4" d="M130.43,201.88l2.96-6.18c.84-1.76-.44-3.79-2.39-3.79h-8.7c-1.75,0-2.76,1.97-1.75,3.39l4.97,7c1.26,1.77,3.96,1.54,4.9-.42Z"/>
      <path class="cls-4" d="M215.78,191.89h-8.7c-1.95,0-3.23,2.03-2.39,3.79l2.96,6.18c.94,1.96,3.64,2.2,4.9.42l4.97-7c1.01-1.42,0-3.39-1.75-3.39Z"/>
    </g>
  </g>
  <path class="cls-3" d="M371.84,81.58c-1.18-2.6-4.87-2.6-6.05,0l-46.77,102.89c-1,2.2.61,4.7,3.03,4.7,1.62,0,3.1-.95,3.77-2.43l7.73-17c.58-1.28,1.86-2.11,3.28-2.11h52.72c1.41,0,2.69.82,3.28,2.11l7.66,16.85c.71,1.57,2.28,2.58,4.01,2.58h11.1c2.42,0,4.03-2.5,3.03-4.7l-46.77-102.89ZM384.49,161.48h-42.62c-2.14,0-3.56-2.21-2.68-4.16l21.22-46.69c1.08-2.37,4.45-2.37,5.53,0l21.22,46.69c.89,1.95-.54,4.16-2.68,4.16Z"/>
  <path class="cls-3" d="M474.57,189.48c8.08-3.19,13.58-9.1,16.54-12.81.96-1.21.74-3-.71-3.82-1.04-.58-2.35-.3-3.11.61l-.03.03c-2.02,2.42-4.11,4.92-8.26,8.03-3.81,2.86-11.54,4.63-17.21,3.3-11.75-2.74-16.68-19.55-17.59-29.12-1.45-15.38,5.31-35.16,17.59-38.11,5.26-1.26,13.17.17,17.2,3.05.51.37,2.3,1.7,4.32,3.67,1.59,1.55,2.77,2.97,3.94,4.36l.03.03c.76.91,2.07,1.2,3.11.61,1.45-.82,1.67-2.61.71-3.82-2.96-3.71-8.46-9.62-16.54-12.81-3.57-1.41-7.45-2.04-11.48-2.04-9.93,0-18.17,3.58-24.48,10.63-.2.23-3.13,3.47-5.38,7.82-6.38,12.33-6.38,31.62,0,43.95,2.25,4.35,5.18,7.6,5.38,7.82,6.31,7.05,14.54,10.63,24.48,10.63,4.03,0,7.92-.63,11.48-2.04Z"/>
  <path class="cls-3" d="M870.47,172.85c-1.04-.58-2.35-.3-3.11.61l-.03.03c-2.02,2.42-4.11,4.92-8.26,8.03-3.81,2.86-11.54,4.63-17.21,3.3-11.75-2.74-16.68-19.55-17.59-29.12-1.45-15.38,5.31-35.16,17.59-38.11,5.26-1.26,13.17.17,17.2,3.05.51.37,2.3,1.7,4.32,3.67,1.59,1.55,2.77,2.97,3.94,4.36l.03.03c.76.91,2.07,1.2,3.11.61,1.45-.82,1.67-2.61.71-3.82-2.96-3.71-8.46-9.62-16.54-12.81-3.57-1.41-7.45-2.04-11.48-2.04-9.93,0-18.17,3.58-24.48,10.63-.2.23-3.13,3.47-5.38,7.82-6.38,12.33-6.38,31.62,0,43.95,2.25,4.35,5.18,7.6,5.38,7.82,6.31,7.05,14.54,10.63,24.48,10.63,4.03,0,7.92-.63,11.48-2.04,8.08-3.19,13.58-9.1,16.54-12.81.96-1.21.74-3-.71-3.82Z"/>
  <path class="cls-3" d="M477.76,211.14c4.47-.88,10.84.15,14.12,2.39.42.29,1.89,1.33,3.55,2.87,1.3,1.21,2.28,2.32,3.23,3.4l.02.02c.63.71,1.7.93,2.55.48,1.19-.64,1.37-2.04.58-2.98-2.43-2.9-6.94-7.52-13.58-10.01-2.93-1.1-6.12-1.59-9.43-1.59-8.16,0-14.92,2.79-20.1,8.31-.17.18-2.57,2.71-4.42,6.11-5.24,9.63-5.24,24.7,0,34.34,1.85,3.4,4.25,5.93,4.42,6.11,5.18,5.51,11.94,8.31,20.1,8.31,3.31,0,6.5-.49,9.43-1.59,6.64-2.49,11.15-7.11,13.58-10.01.79-.94.61-2.35-.58-2.98-.85-.45-1.93-.23-2.55.48l-.02.02c-1.66,1.89-3.38,3.84-6.78,6.28-3.17,2.27-9.52,3.44-14.13,2.58-9.94-1.84-17.17-14.41-17.39-25.63-.23-11.89,7.35-24.92,17.39-26.89Z"/>
  <circle class="cls-3" cx="573.47" cy="88.39" r="10"/>
  <path class="cls-3" d="M573.47,110.7c-4.36,0-7.89,3.53-7.89,7.89v63.09c0,4.36,3.53,7.89,7.89,7.89s7.89-3.53,7.89-7.89v-63.09c0-4.36-3.53-7.89-7.89-7.89Z"/>
  <path class="cls-3" d="M949.93,128.05c-8.24-20.4-29.88-18.52-39.88-15.27-3.19,1.03-6.58-.96-7.89-4.04-.54-1.26-.93-2.51-.93-3.45v-22.29c0-4.28-3.33-7.92-7.6-8.07-4.49-.16-8.17,3.43-8.17,7.88v98.68c0,4.28,3.33,7.92,7.6,8.07,4.49.16,8.17-3.43,8.17-7.88v-47.98c0-5.65,2.71-11.02,7.4-14.16,2.87-1.92,6.62-3.92,11.45-3.45,13.45,1.31,15.17,11.93,15.39,14.8.03.36.02.72,0,1.08,0,.14-.01.28-.01.43v49.48c0,4.28,3.33,7.93,7.61,8.08,4.49.16,8.18-3.43,8.18-7.89v-45.16c0-2.98-.43-5.94-1.29-8.8v-.04Z"/>
  <circle class="cls-3" cx="728.83" cy="214.72" r="5.15"/>
  <path class="cls-3" d="M728.83,226.2c-2.24,0-4.06,1.82-4.06,4.06v32.48c0,2.24,1.82,4.06,4.06,4.06s4.06-1.82,4.06-4.06v-32.48c0-2.24-1.82-4.06-4.06-4.06Z"/>
  <path class="cls-3" d="M681.51,207.74c-2.24,0-4.06,1.82-4.06,4.06v50.95c0,2.24,1.82,4.06,4.06,4.06s4.06-1.82,4.06-4.06v-50.95c0-2.24-1.82-4.06-4.06-4.06Z"/>
  <path class="cls-3" d="M541.42,231.58c-1.41-1.52-2.99-2.72-4.75-3.61-3.27-1.65-6.34-1.79-8.26-1.85-.47-.01-.94-.01-1.41,0-1.92.06-4.99.2-8.26,1.85-1.76.89-3.34,2.09-4.75,3.61-.11.12-1.66,1.78-2.86,4.02-3.39,6.33-3.39,16.24,0,22.57,1.2,2.24,2.75,3.9,2.86,4.02,1.41,1.52,2.99,2.72,4.75,3.61,3.27,1.65,6.34,1.79,8.26,1.85.47.01.94.01,1.41,0,1.92-.06,4.99-.2,8.26-1.85,1.76-.89,3.34-2.09,4.75-3.61.11-.12,1.66-1.78,2.86-4.02,3.39-6.33,3.39-16.24,0-22.57-1.2-2.24-2.75-3.9-2.86-4.02ZM538.44,249.43c-.55,6.3-3.68,15.26-9.35,16.53-1.24.28-2.28.11-2.77,0-5.67-1.27-8.8-10.23-9.35-16.53-.78-8.93,2.99-20.17,9.35-21.63.64-.15,1.61-.27,2.76,0,6.36,1.46,10.13,12.69,9.35,21.63Z"/>
  <path class="cls-3" d="M550.22,178.88c-.7-.41-1.61-.21-2.13.41h0c-.79.95-1.59,1.91-2.66,2.95-1.37,1.33-2.68,2.32-2.92,2.48-.71.48-1.8,1.01-3.16,1.32-4.39,1.01-8.57-2.35-8.57-6.86v-61.96h14.11c1.84,0,3.45-1.39,3.57-3.23.13-2.02-1.47-3.69-3.45-3.69h-14.23v-17.05c0-1.63-1.32-2.95-2.95-2.95h-9.87c-1.63,0-2.95,1.32-2.95,2.95v17.05h-10.11c-1.99,0-3.59,1.68-3.45,3.69.12,1.84,1.73,3.23,3.57,3.23h9.99v64.44c0,.54.03,1.39.35,2.34.59,1.77,1.37,3.17,2.51,4.26,2.36,2.25,7.79,3.75,14.06,3.21,12.42-1.08,18.23-8.9,18.75-10.03.55-1.19.35-2.1-.46-2.57Z"/>
  <path class="cls-3" d="M663.82,111.47c-1.17,0-2.24.69-2.72,1.75l-21.82,48.01c-.9,1.99-3.73,1.99-4.64,0l-22.12-48.66c-.3-.67-.97-1.1-1.71-1.1h-11.89c-1.37,0-2.27,1.41-1.71,2.66l32.48,71.46c.99,2.18,4.09,2.18,5.08,0l31.77-69.89c.9-1.98-.55-4.23-2.72-4.23Z"/>
  <path class="cls-3" d="M716.45,260.46c-.36-.21-.81-.11-1.08.21h0c-.4.48-.8.96-1.34,1.49-.69.67-1.35,1.17-1.48,1.25-.36.24-.91.51-1.6.67-2.22.51-4.33-1.19-4.33-3.46v-31.3h7.13c.93,0,1.74-.7,1.81-1.63.07-1.02-.74-1.87-1.75-1.87h-7.19v-8.61c0-.82-.67-1.49-1.49-1.49h-4.99c-.82,0-1.49.67-1.49,1.49v8.61h-5.1c-1,0-1.81.85-1.75,1.87.06.93.87,1.63,1.81,1.63h5.04v32.55c0,.27.02.7.18,1.18.3.89.69,1.6,1.27,2.15,1.19,1.14,3.94,1.9,7.1,1.62,6.27-.55,9.21-4.5,9.47-5.07.28-.6.18-1.06-.23-1.3Z"/>
  <path class="cls-3" d="M788.89,112.24c-3.02,1.01-5.65,2.84-6.54,3.46-3.19,2.25-4.48,2.92-6.16,3.85-1.45.8-3.49-.53-3.46-2.22v-1.73c0-2.49-2.02-4.51-4.51-4.51h-7.13c-2.49,0-4.51,2.02-4.51,4.51v69.45c0,2.49,2.02,4.51,4.51,4.51h7.13c2.49,0,4.51-2.02,4.51-4.51v-38.98c0-6.23,1.74-12.36,5.18-17.55,3.26-4.93,6.54-6.86,9.44-7.43,4.56-.91,9.8,1.21,12.31-1.92,1.39-1.73,1.52-4.52.38-6.16-2.49-3.57-10.62-.95-11.16-.77Z"/>
  <path class="cls-3" d="M739.27,124.16c-5.17-12.7-27.72-18.19-43.09-11.93-6.9,2.81-14.32,8.79-13.46,11.16.24.66,1.34,1.63,2.3,1.48.89-.14,1.4-1.21,1.55-1.48,1.57-2.96,11.37-8.79,22.31-8.46,3.93.12,8.17.24,11.54,3.46,2.88,2.75,3.62,6.31,3.85,8.01v7.44c0,2.03-1.42,3.78-3.41,4.19-4.47.93-11.16,2.1-16.59,3.82-14.62,4.62-15,3.08-21.93,8.85-1.8,1.5-2.91,2.58-4.14,4.38-5.69,8.31-5.65,22.53,2.6,30.63,5.13,5.04,11.52,6.01,17.51,5.61,2.38-.16,10.25-.06,17.69-5.5,1.11-.81,3.1-2.26,5.05-4.42,1.13-1.26,3.22-.45,3.22,1.24v3.74c0,1.55,1.25,2.8,2.8,2.8h10.56c1.55,0,2.8-1.25,2.8-2.8v-56.44c-.03-1.36-.22-3.47-1.15-5.77ZM716.57,181.1c-1.2.82-8.59,5.83-15.77,2.69-8.46-3.69-8.83-15.26-8.85-16.54-.17-10.07,7.2-16.6,8.08-17.31,8.38-4.54,12.95-5.59,21.49-6.9,1.44-.22,2.75.89,2.75,2.35v28.01c-1.92,3.08-3.54,4.87-7.69,7.69Z"/>
  <path class="cls-3" d="M588.62,234.87l-.07-.24c-5.21-11.41-20.23-9.99-23.95-6.26-.26.26-.6.42-.97.42h-.04c-.52,0-.94-.4-.98-.91-.01-.14-.02-.29-.03-.41-.04-.77-.67-1.37-1.44-1.37h-4.9c-1.11,0-2,.9-2,2v36.88c0,.83.68,1.51,1.51,1.51h5.37c.83,0,1.51-.68,1.51-1.51v-27.08c0-6.69,7.22-11.7,14.3-7.65,2.17,1.24,3.92,4.36,3.92,6.86v27.88c0,.83.68,1.51,1.51,1.51h5.38c.83,0,1.51-.68,1.51-1.51v-25.85c0-1.44-.21-2.88-.62-4.26Z"/>
  <path class="cls-3" d="M775.96,234.87l-.07-.24c-5.21-11.41-20.23-9.99-23.95-6.26-.26.26-.6.42-.97.42h-.04c-.52,0-.94-.4-.98-.91-.01-.14-.02-.29-.03-.41-.04-.77-.67-1.37-1.44-1.37h-4.9c-1.11,0-2,.9-2,2v36.88c0,.83.68,1.51,1.51,1.51h5.37c.83,0,1.51-.68,1.51-1.51v-27.08c0-6.69,7.22-11.7,14.3-7.65,2.17,1.24,3.92,4.36,3.92,6.86v27.88c0,.83.68,1.51,1.51,1.51h5.38c.83,0,1.51-.68,1.51-1.51v-25.85c0-1.44-.21-2.88-.62-4.26Z"/>
  <path class="cls-3" d="M634.87,257.66l.07.24c5.21,11.41,20.23,9.99,23.95,6.26.26-.26.6-.42.97-.42h.04c.52,0,.94.4.98.91.01.14.02.29.03.41.04.77.67,1.37,1.44,1.37h4.9c1.11,0,2-.9,2-2v-36.88c0-.83-.68-1.51-1.51-1.51h-5.37c-.83,0-1.51.68-1.51,1.51v27.08c0,6.69-7.22,11.7-14.3,7.65-2.17-1.24-3.92-4.36-3.92-6.86v-27.88c0-.83-.68-1.51-1.51-1.51h-5.38c-.83,0-1.51.68-1.51,1.51v25.85c0,1.44.21,2.88.62,4.26Z"/>
  <path class="cls-3" d="M611.79,265.01c1.2,0,2.31-.17,3.34-.5,1.02-.33,1.91-.78,2.66-1.33.75-.56,1.32-1.2,1.73-1.93.41-.73.61-1.48.61-2.24,0-1.24-.34-2.33-1.03-3.26-.69-.93-1.6-1.75-2.72-2.48-1.13-.73-2.41-1.4-3.84-2.01-1.43-.61-2.9-1.24-4.39-1.89-1.49-.65-2.96-1.34-4.39-2.07-1.43-.73-2.71-1.58-3.84-2.56-1.13-.98-2.03-2.11-2.72-3.4-.69-1.28-1.03-2.79-1.03-4.51,0-1.62.38-3.12,1.14-4.51.76-1.39,1.82-2.59,3.18-3.6,1.36-1.01,2.98-1.79,4.85-2.36,1.87-.57,3.92-.85,6.15-.85,1.49,0,2.88.09,4.17.28,1.29.19,2.55.54,3.8,1.07,1.47.62,2.65,1.14,3.64,2.32,1.43,1.71,2.12,4.41,1.15,5.39-.29.29-.75.46-1.15.38-.74-.14-1-1.04-1.54-1.92-.86-1.41-2.05-2.13-3.46-2.97-1.59-.95-3.05-1.36-3.83-1.53-.93-.21-1.89-.32-2.87-.32-1.29,0-2.46.14-3.51.42-1.05.28-1.95.66-2.7,1.15-.75.49-1.33,1.07-1.76,1.73-.42.66-.64,1.36-.64,2.11,0,1.22.37,2.28,1.12,3.18.75.9,1.73,1.72,2.96,2.44,1.23.73,2.63,1.4,4.19,2.01,1.57.61,3.16,1.23,4.78,1.87,1.62.64,3.22,1.32,4.79,2.07,1.57.74,2.96,1.6,4.19,2.56,1.23.97,2.22,2.09,2.96,3.36.75,1.27,1.12,2.75,1.12,4.45s-.35,3.33-1.05,4.83c-.7,1.5-1.76,2.79-3.18,3.89-1.42,1.1-3.2,1.97-5.33,2.6-2.14.64-4.65.95-7.55.95-1.32,0-2.67-.09-4.06-.28-.72-.1-2.52-.4-4.19-1.09-4.53-1.87-7.51-6.45-6.99-8.42.05-.21.22-.85.77-1.15.59-.33,1.3-.08,1.54,0,1.94.68,1.61,3.71,3.85,5.77,2.23,2.05,6,2.23,8.4,2.34.35.02.68.01.68.01Z"/>
  <path class="cls-3" d="M819.67,263.81c-2.11-3.51-5.49-4.79-8.08-5.77-.79-.25-2.09-.61-3.71-.86-4.81-.75-7.06.29-13.22.09-4.75-.16-6.16-.87-6.92-1.92-.08-.11-1.06-1.49-.66-3.1.42-1.67,2.04-2.42,2.58-2.67,1.12-.52,2.25-.57,3.21-.43.55.33,1.12.62,1.72.87,2.38.98,4.62,1.06,6.02,1.1.34,0,.68,0,1.02,0,1.4-.04,3.64-.12,6.02-1.1,1.28-.53,2.43-1.24,3.46-2.14.08-.07,1.21-1.06,2.08-2.38,2.47-3.75,2.47-9.62,0-13.38,0,0-.35-.81-.36-.81,0,0,.34.79.34.79,0-.04,3.07-1.12,5.42-1.37.13-.01.35-.06.49-.21,1.02-1.09-.14-2.87-1.63-2.87h-9.69s-.07-.04-.11-.05c-2.38-.98-4.62-1.06-6.02-1.1-.34,0-.68,0-1.02,0-1.4.04-3.64.12-6.02,1.1-1.28.53-2.43,1.24-3.46,2.14-.08.07-1.21,1.06-2.08,2.38-2.47,3.75-2.47,9.62,0,13.38.54.83,1.19,1.52,1.62,1.94-1.78.41-9.05,3.74-8.31,9.83.24,1.97,1.3,4.35,3.14,5.58.23.15.46.28.7.41-.5.53-1.01,1.13-1.42,1.75-2.84,4.34-2.04,8.8-2.04,8.8.73,4.1,3.58,6.45,4.62,7.31.86.71,2.09,1.55,4.2,2.39,9.85,3.91,19.57.2,20.06,0,4.1-1.64,5.89-3.59,6.51-4.31,1.41-1.65,2.07-3.24,2.31-3.85.19-.49,2.35-6.35-.77-11.54ZM800.03,228.5c.36-.08.91-.14,1.57,0,3.61.79,5.75,6.86,5.31,11.68-.31,3.4-2.09,8.24-5.31,8.93-.71.15-1.29.06-1.58,0-3.22-.69-5-5.53-5.31-8.93-.44-4.82,1.7-10.89,5.31-11.68ZM816.87,274.67c-1.02,4.86-8.89,7.73-15.14,7.14-4.41-.42-10.68-2.81-11.57-7.14-.2-.95-.08-1.74,0-2.12.89-4.33,3.6-7.29,12.59-7.21,10.64.09,13.1,2.36,14.12,7.22.1.49.19,1.23,0,2.11Z"/>
</svg>